<svg xmlns="http://www.w3.org/2000/svg" viewBox="0 0 64 64">
  <defs>
    <linearGradient id="a" x1="8" x2="56" y1="8" y2="56" gradientUnits="userSpaceOnUse">
      <stop stop-color="#22c55e"/>
      <stop offset=".55" stop-color="#14b8a6"/>
      <stop offset="1" stop-color="#f59e0b"/>
    </linearGradient>
  </defs>
  <rect width="64" height="64" rx="16" fill="#04100c"/>
  <rect x="10" y="9" width="44" height="44" rx="15" fill="url(#a)"/>
  <rect x="15" y="14" width="34" height="34" rx="12" fill="#071410"/>
  <path d="M24 34c-4-3-5-8-3-12 3-5 8-7 13-5 3-4 9-4 13 0 3 4 3 10 0 13 4 2 5 7 3 11-3 4-8 5-12 2-4 4-10 4-13 0-3-2-3-6-1-9Z" fill="#dfffee"/>
  <circle cx="29" cy="28" r="2.2" fill="#06120e"/>
  <circle cx="39" cy="28" r="2.2" fill="#06120e"/>
  <path d="M30 36c3 3 7 3 10 0" fill="none" stroke="#06120e" stroke-width="2.5" stroke-linecap="round"/>
</svg>
