<svg xmlns="http://www.w3.org/2000/svg" viewBox="0 0 512 512" fill="none">
  <defs>
    <linearGradient id="iconBlue" x1="118" x2="286" y1="112" y2="326" gradientUnits="userSpaceOnUse">
      <stop stop-color="#2AA8FF"/>
      <stop offset=".58" stop-color="#1672FF"/>
      <stop offset="1" stop-color="#0D56FF"/>
    </linearGradient>
    <linearGradient id="iconGreen" x1="246" x2="404" y1="108" y2="302" gradientUnits="userSpaceOnUse">
      <stop stop-color="#6CFB7E"/>
      <stop offset=".58" stop-color="#25DD6B"/>
      <stop offset="1" stop-color="#12C460"/>
    </linearGradient>
  </defs>

  <rect width="512" height="512" rx="124" fill="#04070D"/>
  <circle cx="118" cy="106" r="78" fill="#137DFF" opacity=".18"/>
  <circle cx="392" cy="408" r="104" fill="#3BE772" opacity=".16"/>

  <rect x="92" y="92" width="328" height="328" rx="104" fill="#091120" opacity=".96"/>
  <rect x="92.5" y="92.5" width="327" height="327" rx="103.5" stroke="url(#iconBlue)" stroke-opacity=".24"/>

  <path
    d="M126 136h56c15 0 29 7 39 19l79 105c9 11 22 18 36 18h27l-38 36c-15 14-38 12-51-4L126 136Z"
    fill="url(#iconBlue)"
  />

  <path
    d="M280 255c17 0 32-7 46-22l56-56-11-11 46-12-12 46-11-11-60 60c-20 21-42 31-68 31h-17l39-25Z"
    fill="url(#iconGreen)"
  />

  <path d="M303 248h28v66c-10 3-20 1-28-6v-60Z" fill="url(#iconGreen)" opacity=".92"/>
  <path d="M340 213h29v82c-8 11-18 20-29 28v-110Z" fill="url(#iconGreen)" opacity=".95"/>
  <path d="M379 176h27v90c-6 12-15 24-27 36V176Z" fill="url(#iconGreen)"/>
</svg>
