<svg xmlns="http://www.w3.org/2000/svg" viewBox="0 0 512 512">
  <defs>
    <linearGradient id="bg" x1="80" x2="432" y1="72" y2="440" gradientUnits="userSpaceOnUse">
      <stop stop-color="#22c55e"/>
      <stop offset=".55" stop-color="#14b8a6"/>
      <stop offset="1" stop-color="#f59e0b"/>
    </linearGradient>
    <linearGradient id="chip" x1="142" x2="370" y1="132" y2="382" gradientUnits="userSpaceOnUse">
      <stop stop-color="#f8fff9"/>
      <stop offset="1" stop-color="#bff7e7"/>
    </linearGradient>
    <filter id="glow" x="-40%" y="-40%" width="180%" height="180%">
      <feGaussianBlur stdDeviation="14" result="blur"/>
      <feColorMatrix in="blur" type="matrix" values="0 0 0 0 0.10 0 0 0 0 0.95 0 0 0 0 0.58 0 0 0 .75 0"/>
      <feBlend in="SourceGraphic"/>
    </filter>
  </defs>

  <rect width="512" height="512" rx="112" fill="#04100c"/>
  <path d="M72 352c66 34 112-72 184-26 70 45 116-24 184-86v200H72V352Z" fill="#06241d"/>
  <circle cx="130" cy="120" r="72" fill="#22c55e" opacity=".24"/>
  <circle cx="394" cy="382" r="86" fill="#f59e0b" opacity=".18"/>

  <g filter="url(#glow)">
    <rect x="112" y="96" width="288" height="288" rx="82" fill="url(#bg)"/>
    <rect x="136" y="120" width="240" height="240" rx="66" fill="#071410" opacity=".92"/>
  </g>

  <g fill="none" stroke="#7df9c8" stroke-linecap="round" stroke-width="16">
    <path d="M134 194h-36M134 256h-48M134 318h-36M378 194h36M378 256h48M378 318h36"/>
    <path d="M194 134V98M256 134V86M318 134V98M194 378v36M256 378v48M318 378v36"/>
  </g>

  <path d="M186 274c-26-17-36-51-20-80 15-28 50-42 80-31 19-27 58-31 83-8 25 22 27 61 7 87 24 15 31 47 15 71-16 25-50 31-74 13-22 22-58 23-81 1-15-14-20-34-10-53Z" fill="url(#chip)"/>

  <g fill="#06120e">
    <circle cx="218" cy="224" r="13"/>
    <circle cx="294" cy="224" r="13"/>
    <path d="M226 278c17 17 43 17 60 0 8-8 21 4 13 13-24 27-62 27-86 0-8-9 5-21 13-13Z"/>
  </g>

  <g fill="none" stroke="#06120e" stroke-linecap="round" stroke-linejoin="round" stroke-width="18">
    <path d="M256 190v-34"/>
    <path d="M236 156h40"/>
    <path d="M256 330v32"/>
    <path d="M234 362h44"/>
  </g>

  <path d="M324 318c27-6 54 8 66 34-24 3-48-3-66-34Z" fill="#bff7e7"/>
</svg>
